<svg width="252" height="267" viewBox="0 0 252 267" fill="none" xmlns="http://www.w3.org/2000/svg">
<path d="M25.4452 26.3374C51.0131 0.772683 80.9912 0.638651 126.294 0.772685C171.363 0.906026 200.905 0.772685 226.453 26.3374C300.135 100.068 198.133 266.757 126.294 266.757C54.4561 266.757 -48.2405 100.014 25.4452 26.3374Z" fill="#F59245"/>
<path d="M79.7858 96.7552C84.9672 105.487 85.9143 118.603 76.5609 122.554C68.9424 125.772 61.023 123.141 56.9185 114.639C52.8141 106.137 52.2277 89.1327 59.2639 86.4942C66.3001 83.8557 75.2134 89.0494 79.7858 96.7552Z" fill="white"/>
<path d="M117.925 74.9698C118.216 81.1264 113.343 96.4106 102.973 96.9576C92.2029 97.5256 85.0897 85.2308 86.2624 74.9698C87.4351 64.7089 91.6483 50.6417 102.973 51.223C113.918 51.7848 117.633 68.8132 117.925 74.9698Z" fill="white"/>
<path d="M147.242 96.9576C137.121 97.0909 131.704 83.7649 131.704 76.1425C131.704 68.52 135.814 52.1402 147.242 51.8093C159.352 51.4587 163.659 70.5722 163.073 78.4878C162.487 86.4034 156.741 96.8324 147.242 96.9576Z" fill="white"/>
<path d="M173.92 122.757C181.364 126.264 188.476 121.602 193.563 115.134C200.7 106.059 197.667 88.1624 189.752 85.8171C181.836 83.4717 170.353 91.6127 167.764 101.941C165.703 110.164 166.252 119.143 173.92 122.757Z" fill="white"/>
<path d="M124.318 107.529C97.3469 108.701 77.9976 140.657 70.9614 153.264C63.9252 165.871 73.0668 186.313 87.9653 187.565C95.8464 188.227 98.8202 180.066 106.728 179.942C114.955 179.813 118.143 187.65 126.371 187.565C134.385 187.482 137.412 179.984 145.427 179.942C153.548 179.9 154.808 187.565 164.776 187.565C174.744 187.565 189.695 171.44 180.607 153.264C171.519 135.088 151.29 106.357 124.318 107.529Z" fill="white"/>
<path fill-rule="evenodd" clip-rule="evenodd" d="M126 129.757C123.791 129.757 122 131.548 122 133.757V143.757H112C109.791 143.757 108 145.548 108 147.757C108 149.966 109.791 151.757 112 151.757H122V160.757C122 162.966 123.791 164.757 126 164.757C128.209 164.757 130 162.966 130 160.757V151.757H138C140.209 151.757 142 149.966 142 147.757C142 145.548 140.209 143.757 138 143.757H130V133.757C130 131.548 128.209 129.757 126 129.757Z" fill="#F59245"/>
</svg>
